<svg id="svg" version="1.1" xmlns="http://www.w3.org/2000/svg" xmlns:xlink="http://www.w3.org/1999/xlink" width="400" height="303.030303030303" viewBox="0, 0, 400,303.030303030303"><g id="svgg"><path id="path0" d="M60.000 151.515 L 60.000 246.364 200.000 246.364 L 340.000 246.364 340.000 151.515 L 340.000 56.667 200.000 56.667 L 60.000 56.667 60.000 151.515 M335.152 151.515 L 335.152 241.818 200.000 241.818 L 64.848 241.818 64.848 151.515 L 64.848 61.212 200.000 61.212 L 335.152 61.212 335.152 151.515 M196.665 126.517 L 169.851 153.332 172.957 156.438 L 176.062 159.543 202.882 132.723 L 229.702 105.903 226.591 102.802 L 223.479 99.701 196.665 126.517 M163.937 120.760 L 155.003 129.698 161.440 136.136 L 167.878 142.573 170.981 139.470 L 174.084 136.367 170.758 133.031 L 167.432 129.695 173.263 123.858 L 179.093 118.022 175.983 114.922 L 172.872 111.821 163.937 120.760 M228.561 120.072 L 225.458 123.175 228.710 126.437 L 231.962 129.699 226.210 135.456 L 220.459 141.213 223.564 144.318 L 226.668 147.422 235.530 138.559 L 244.392 129.697 238.028 123.333 L 231.664 116.969 228.561 120.072 M140.227 177.879 C 137.161 178.801,131.885 185.177,128.441 192.122 C 127.614 193.788,126.802 195.152,126.635 195.152 C 126.469 195.152,125.196 196.163,123.807 197.399 C 118.671 201.968,116.226 201.793,118.485 197.018 C 119.582 194.700,119.576 194.875,118.561 194.863 C 118.102 194.857,117.043 194.772,116.207 194.675 C 113.637 194.374,110.323 197.231,110.308 199.762 C 110.295 201.841,112.462 201.305,115.577 198.459 C 117.513 196.689,117.692 196.674,117.237 198.322 C 116.135 202.315,119.709 201.892,124.444 197.470 C 125.666 196.329,126.667 195.470,126.667 195.561 C 126.667 195.653,126.517 196.424,126.335 197.274 C 125.261 202.282,128.851 202.561,134.596 197.916 C 137.039 195.941,137.241 195.869,136.537 197.230 C 133.704 202.709,141.918 201.824,147.094 196.092 C 148.472 194.566,147.110 195.245,145.147 197.063 C 141.483 200.456,138.334 201.514,136.990 199.806 C 136.198 198.799,136.603 198.182,138.057 198.182 C 139.435 198.182,141.282 196.591,141.152 195.516 C 140.902 193.443,138.786 194.005,134.805 197.200 C 129.261 201.649,126.307 202.017,126.759 198.203 C 127.087 195.436,127.721 194.418,129.791 193.334 C 134.616 190.809,140.096 185.890,141.609 182.727 C 143.414 178.952,142.881 177.080,140.227 177.879 M194.394 178.287 C 191.365 179.698,186.445 185.911,183.410 192.160 C 182.618 193.790,181.827 195.130,181.653 195.138 C 181.479 195.145,180.252 196.120,178.926 197.305 C 173.977 201.725,171.154 201.569,173.467 197.004 C 174.442 195.082,174.436 194.874,173.409 194.869 C 172.951 194.867,172.010 194.781,171.319 194.677 C 168.532 194.258,164.675 197.759,165.278 200.161 C 165.679 201.759,167.501 201.213,170.274 198.663 C 172.469 196.646,172.484 196.642,172.240 198.168 C 171.583 202.275,174.184 202.107,179.206 197.716 C 181.640 195.588,181.756 195.524,181.491 196.447 C 179.850 202.168,183.441 202.822,189.531 197.911 C 190.689 196.977,191.858 196.051,192.129 195.853 C 192.575 195.529,192.620 195.761,192.599 198.277 C 192.566 202.251,194.156 202.221,197.114 198.192 C 198.179 196.741,198.303 196.666,199.647 196.660 C 200.424 196.656,201.640 196.390,202.348 196.069 C 203.057 195.747,203.636 195.517,203.636 195.557 C 203.636 195.597,203.364 196.164,203.030 196.818 C 200.801 201.191,204.437 203.462,207.879 199.847 C 209.266 198.389,217.273 194.530,217.273 195.319 C 217.273 195.403,216.947 196.253,216.550 197.206 C 214.691 201.663,215.168 201.862,218.948 198.205 C 223.368 193.929,225.312 193.683,224.209 197.539 C 222.749 202.645,224.637 202.590,230.833 197.345 C 231.875 196.463,232.727 195.798,232.727 195.867 C 232.727 195.935,232.524 196.382,232.275 196.859 C 229.539 202.104,235.879 202.340,241.405 197.200 C 242.526 196.157,243.340 195.576,243.212 195.909 C 240.823 202.155,245.030 202.932,251.687 197.475 C 254.454 195.206,254.366 195.218,253.931 197.157 C 252.642 202.897,256.869 202.588,264.022 196.418 C 264.533 195.977,264.537 196.008,264.098 197.058 C 262.225 201.540,265.457 203.332,269.091 199.826 C 270.459 198.507,275.185 196.054,277.197 195.619 C 277.739 195.502,278.182 195.292,278.182 195.152 C 278.182 194.751,276.135 195.406,273.375 196.692 C 270.519 198.021,270.303 198.000,270.303 196.393 C 270.303 193.038,266.967 193.417,262.206 197.312 C 257.169 201.433,254.242 201.924,254.242 198.648 C 254.242 195.955,255.236 194.470,258.082 192.911 C 264.760 189.252,270.042 183.374,270.123 179.511 C 270.250 173.504,260.823 182.025,255.836 192.424 C 255.236 193.674,254.638 194.741,254.505 194.794 C 254.373 194.848,253.066 195.850,251.602 197.022 C 245.881 201.600,243.309 202.078,243.350 198.554 C 243.383 195.705,244.112 194.554,246.800 193.110 C 253.547 189.486,259.091 183.343,259.091 179.491 C 259.091 173.652,250.152 181.689,244.960 192.197 C 244.157 193.822,243.376 195.152,243.225 195.152 C 243.075 195.152,241.915 196.058,240.649 197.167 C 237.043 200.325,234.103 201.376,232.727 200.000 C 231.660 198.933,232.090 198.182,233.768 198.182 C 235.572 198.182,237.485 195.710,236.468 194.693 C 235.507 193.732,234.077 194.260,231.061 196.690 C 224.688 201.824,223.478 202.103,224.592 198.183 C 226.011 193.187,223.603 193.051,218.437 197.834 C 215.928 200.157,215.848 200.135,216.990 197.428 C 217.479 196.269,217.879 195.225,217.879 195.107 C 217.879 194.472,214.321 195.546,211.216 197.119 C 209.341 198.070,209.498 198.115,209.263 196.550 C 208.883 194.016,207.587 193.575,204.351 194.880 C 200.128 196.583,198.532 196.582,199.127 194.874 C 199.727 193.153,199.361 191.377,198.382 191.265 C 196.492 191.049,195.491 193.401,196.666 195.301 C 197.538 196.713,197.314 197.551,195.604 199.261 C 193.219 201.646,192.406 201.003,193.020 197.220 C 193.519 194.148,193.532 194.152,190.679 196.474 C 184.390 201.593,181.570 202.176,181.719 198.325 C 181.817 195.810,182.711 194.443,185.068 193.205 C 191.495 189.828,197.015 183.929,197.489 179.934 C 197.772 177.539,196.945 177.099,194.394 178.287 M142.089 178.861 C 143.115 181.635,137.733 188.225,131.230 192.156 C 128.715 193.678,128.333 193.685,129.017 192.197 C 132.717 184.140,140.939 175.752,142.089 178.861 M196.909 178.545 C 198.949 180.585,192.171 188.981,185.702 192.429 C 183.377 193.669,183.233 193.445,184.659 190.807 C 188.799 183.150,195.154 176.790,196.909 178.545 M258.424 178.545 C 260.528 180.650,253.982 188.743,247.062 192.592 C 245.041 193.716,244.901 193.514,246.074 191.167 C 249.714 183.886,256.663 176.784,258.424 178.545 M269.665 178.861 C 270.691 181.635,265.309 188.225,258.806 192.156 C 255.567 194.115,255.526 193.675,258.485 188.665 C 262.601 181.697,268.726 176.325,269.665 178.861 M198.926 193.268 C 198.909 195.429,198.143 196.280,197.225 195.159 C 196.154 193.852,197.051 191.303,198.479 191.590 C 198.822 191.659,198.936 192.086,198.926 193.268 M278.977 194.702 C 278.337 195.343,278.355 195.666,279.143 197.726 L 279.801 199.446 278.646 200.503 C 277.613 201.450,277.540 201.609,277.953 202.022 C 278.561 202.630,279.514 202.142,280.160 200.892 C 280.510 200.215,281.268 199.689,283.136 198.826 C 286.065 197.473,289.091 195.600,289.091 195.141 C 289.091 194.964,288.463 195.251,287.697 195.779 C 285.666 197.175,280.952 199.456,280.576 199.224 C 279.472 198.541,278.801 195.328,279.665 194.866 C 280.515 194.411,281.176 195.260,280.640 196.118 C 280.326 196.621,280.330 196.708,280.659 196.599 C 280.888 196.522,281.061 196.020,281.061 195.429 C 281.061 194.225,279.870 193.809,278.977 194.702 M140.721 195.318 C 140.948 195.908,139.560 197.468,138.593 197.711 C 136.822 198.156,136.990 196.289,138.821 195.176 C 139.825 194.565,140.451 194.612,140.721 195.318 M148.145 194.684 C 148.046 194.782,148.103 195.463,148.271 196.196 L 148.577 197.531 146.864 199.423 C 144.650 201.870,144.642 202.501,146.854 200.227 C 148.870 198.156,148.551 198.210,149.965 199.697 C 151.301 201.102,151.588 201.148,153.277 200.227 C 154.570 199.523,159.224 195.183,158.964 194.924 C 158.884 194.843,157.663 195.884,156.251 197.236 C 152.641 200.693,151.103 201.018,149.812 198.597 L 149.242 197.530 150.000 196.911 C 150.417 196.571,151.163 195.974,151.657 195.586 C 152.152 195.198,152.475 194.798,152.375 194.698 C 152.275 194.598,151.544 195.077,150.752 195.762 C 149.209 197.098,148.977 197.071,148.579 195.510 C 148.439 194.957,148.243 194.585,148.145 194.684 M236.069 195.010 C 236.861 195.965,234.493 198.272,233.221 197.784 C 232.461 197.492,232.623 197.003,233.904 195.722 C 235.203 194.423,235.500 194.325,236.069 195.010 M116.793 195.032 C 118.140 195.549,113.565 200.606,111.751 200.606 C 109.498 200.606,112.202 195.848,114.778 195.281 C 115.484 195.125,116.064 194.966,116.263 194.872 C 116.291 194.859,116.530 194.931,116.793 195.032 M172.134 195.318 C 172.465 195.717,172.300 196.018,171.034 197.323 C 167.262 201.213,164.628 201.773,166.301 198.330 C 167.236 196.406,168.917 195.301,171.554 194.879 C 171.658 194.862,171.919 195.060,172.134 195.318 M208.732 196.181 C 208.842 197.495,208.393 198.182,207.424 198.182 C 205.832 198.182,205.671 196.154,207.199 195.353 C 208.363 194.742,208.623 194.883,208.732 196.181 M266.983 196.029 C 266.500 197.194,266.756 197.925,267.878 198.588 C 268.990 199.244,269.007 199.480,268.005 200.269 C 265.256 202.431,263.146 200.567,264.715 197.360 C 265.769 195.206,267.823 194.000,266.983 196.029 M269.636 195.212 C 270.564 196.140,269.877 198.182,268.636 198.182 C 267.152 198.182,266.839 196.737,268.075 195.592 C 268.989 194.744,269.133 194.709,269.636 195.212 M205.907 195.682 C 205.344 197.051,205.400 197.301,206.509 198.347 C 207.756 199.523,207.676 199.922,206.022 200.778 C 202.936 202.373,201.811 198.492,204.562 195.741 C 205.322 194.981,206.212 194.942,205.907 195.682 M279.628 200.963 C 279.462 201.461,278.557 201.992,278.305 201.739 C 278.016 201.451,278.762 200.606,279.305 200.606 C 279.548 200.606,279.694 200.767,279.628 200.963 " stroke="none" fill="#f9c254" fill-rule="evenodd"></path><path id="path1" d="M0.000 151.515 L 0.000 303.030 200.000 303.030 L 400.000 303.030 400.000 151.515 L 400.000 0.000 200.000 0.000 L 0.000 0.000 0.000 151.515 M340.000 151.515 L 340.000 246.667 200.000 246.667 L 60.000 246.667 60.000 151.515 L 60.000 56.364 200.000 56.364 L 340.000 56.364 340.000 151.515 M64.848 151.515 L 64.848 241.515 200.000 241.515 L 335.152 241.515 335.152 151.515 L 335.152 61.515 200.000 61.515 L 64.848 61.515 64.848 151.515 M203.034 132.875 L 176.062 159.847 172.805 156.589 L 169.548 153.332 196.514 126.365 L 223.479 99.398 226.742 102.651 L 230.005 105.904 203.034 132.875 M173.566 123.858 L 167.735 129.695 171.061 133.031 L 174.387 136.367 171.132 139.622 L 167.878 142.876 161.289 136.287 L 154.700 129.698 163.786 120.608 L 172.872 111.518 176.134 114.770 L 179.396 118.022 173.566 123.858 M235.682 138.711 L 226.668 147.725 223.412 144.469 L 220.156 141.213 225.909 135.455 L 231.662 129.696 228.408 126.442 L 225.155 123.189 228.408 119.925 L 231.661 116.662 238.178 123.180 L 244.695 129.697 235.682 138.711 M142.543 178.055 C 144.005 181.864,137.752 189.581,130.065 193.456 C 128.256 194.368,127.387 195.548,127.096 197.486 C 126.458 201.739,128.998 201.554,134.766 196.930 C 136.382 195.634,137.762 194.630,137.832 194.700 C 137.901 194.770,138.244 194.627,138.592 194.383 C 139.467 193.770,140.411 193.828,141.050 194.533 C 142.171 195.772,140.463 198.096,138.208 198.399 C 136.660 198.606,136.407 198.965,137.229 199.788 C 138.615 201.174,141.530 200.079,145.117 196.826 C 148.187 194.041,148.788 193.822,148.788 195.487 C 148.788 196.786,149.228 196.779,150.758 195.455 C 151.533 194.784,152.287 194.309,152.434 194.400 C 152.894 194.685,152.442 195.329,151.045 196.375 C 149.459 197.563,149.398 197.929,150.583 199.114 C 152.070 200.601,152.614 200.381,156.469 196.733 C 158.065 195.223,158.947 194.583,159.152 194.788 C 159.357 194.993,158.690 195.825,157.123 197.319 C 153.031 201.223,151.427 201.772,149.738 199.848 C 148.580 198.530,148.810 198.481,146.943 200.455 C 144.299 203.250,143.923 202.404,146.517 199.497 C 148.147 197.670,148.365 197.193,148.003 196.251 C 147.866 195.894,147.296 196.237,145.544 197.732 C 140.060 202.411,134.280 202.410,136.060 197.730 C 136.416 196.792,136.438 196.781,133.671 198.878 C 130.507 201.276,128.435 201.996,126.963 201.209 C 126.391 200.903,125.698 199.061,125.901 198.386 C 125.960 198.191,126.089 197.565,126.188 196.997 L 126.368 195.964 124.594 197.657 C 120.001 202.037,116.679 202.525,117.040 198.765 L 117.188 197.230 115.942 198.434 C 112.086 202.164,108.992 202.121,110.430 198.356 C 111.477 195.614,116.428 192.933,117.435 194.563 C 117.549 194.747,118.009 194.802,118.514 194.691 C 119.660 194.439,119.695 195.183,118.636 197.273 C 116.473 201.541,118.902 201.460,123.802 197.100 C 125.194 195.862,126.442 194.848,126.575 194.847 C 126.709 194.846,127.604 193.293,128.565 191.394 C 131.473 185.651,136.407 179.424,139.091 178.109 C 140.460 177.438,142.296 177.410,142.543 178.055 M197.597 178.222 C 199.287 181.380,193.266 188.874,185.566 193.195 C 182.835 194.728,182.334 195.379,181.928 197.920 C 181.311 201.778,184.054 201.411,189.848 196.861 C 193.691 193.843,193.786 193.809,193.508 195.530 C 192.746 200.243,192.859 200.917,194.270 200.094 C 196.439 198.829,197.408 196.821,196.485 195.503 C 195.035 193.434,197.121 189.893,199.062 191.127 C 199.588 191.461,199.732 194.240,199.274 195.225 C 198.725 196.405,202.843 195.765,204.992 194.337 C 206.857 193.097,209.394 194.375,209.394 196.556 C 209.394 197.820,209.482 197.819,212.080 196.515 C 214.239 195.432,217.786 194.352,218.113 194.679 C 218.213 194.778,217.864 195.893,217.337 197.155 L 216.379 199.449 218.308 197.644 C 223.491 192.796,226.321 192.963,224.856 198.029 C 224.112 200.601,224.112 200.606,224.773 200.605 C 225.516 200.603,226.969 199.668,230.142 197.151 C 233.704 194.324,234.861 193.721,235.973 194.110 C 238.391 194.955,236.147 198.485,233.192 198.485 C 232.069 198.485,232.171 199.550,233.352 200.161 C 234.949 200.987,237.171 199.951,240.950 196.620 C 242.055 195.646,243.078 194.839,243.222 194.828 C 243.367 194.817,244.123 193.488,244.903 191.874 C 249.396 182.578,256.841 175.319,259.095 178.036 C 261.362 180.767,254.678 189.157,246.913 193.327 C 243.968 194.908,242.444 198.349,243.907 200.112 C 245.644 202.206,253.538 196.394,256.380 190.928 C 260.979 182.084,267.672 175.672,269.939 177.939 C 272.588 180.588,264.602 190.397,257.067 193.751 C 255.628 194.392,254.545 196.359,254.545 198.334 C 254.545 201.739,256.850 201.308,262.412 196.863 C 263.988 195.602,265.336 194.629,265.406 194.699 C 265.477 194.770,265.819 194.627,266.168 194.383 C 268.026 193.082,270.606 194.345,270.606 196.556 C 270.606 197.803,270.782 197.812,272.918 196.672 C 273.850 196.174,275.381 195.543,276.321 195.268 C 277.261 194.994,278.464 194.557,278.995 194.296 C 280.431 193.592,281.590 194.172,281.458 195.530 C 281.336 196.801,280.303 197.146,280.395 195.886 C 280.462 194.963,279.801 194.528,279.504 195.301 C 279.282 195.879,279.792 197.782,280.387 198.596 C 280.865 199.249,282.993 198.417,286.748 196.109 C 287.876 195.416,288.933 194.848,289.096 194.848 C 290.428 194.848,286.854 197.402,282.991 199.209 C 281.383 199.962,280.586 200.536,280.145 201.263 C 279.673 202.043,279.328 202.273,278.634 202.273 C 277.302 202.273,277.248 201.313,278.521 200.273 L 279.533 199.448 279.007 197.981 C 278.718 197.175,278.483 196.277,278.483 195.985 C 278.485 195.322,278.567 195.315,276.295 196.170 C 273.054 197.390,270.203 198.984,268.958 200.271 C 265.918 203.416,262.152 201.632,263.629 197.747 C 264.028 196.698,263.926 196.738,261.749 198.493 C 256.420 202.787,252.533 202.336,253.609 197.548 C 253.996 195.824,254.122 195.796,251.352 198.052 C 245.427 202.878,241.330 202.505,242.661 197.262 L 242.968 196.053 241.117 197.767 C 235.968 202.534,229.276 202.108,231.862 197.177 C 232.191 196.549,232.180 196.540,231.635 197.001 C 224.189 203.300,221.807 202.913,224.467 195.836 C 225.169 193.968,222.085 195.484,218.873 198.586 C 214.780 202.538,214.313 201.945,216.816 195.974 C 217.356 194.686,209.587 198.367,207.746 200.271 C 204.535 203.593,200.843 201.526,202.576 197.378 C 202.826 196.779,203.030 196.244,203.030 196.189 C 203.030 196.133,202.468 196.286,201.780 196.529 C 201.092 196.771,200.036 196.972,199.432 196.976 C 198.459 196.981,198.176 197.181,196.963 198.718 C 193.978 202.501,192.254 202.429,192.305 198.522 C 192.322 197.168,192.307 196.061,192.271 196.061 C 192.235 196.061,191.212 196.871,189.998 197.860 C 184.159 202.619,180.590 202.715,181.000 198.102 L 181.155 196.355 179.651 197.647 C 174.549 202.030,171.490 202.518,171.899 198.885 C 172.075 197.327,171.913 197.275,170.739 198.515 C 167.900 201.511,165.150 202.114,165.153 199.740 C 165.157 196.707,169.488 193.459,172.176 194.473 C 172.642 194.649,173.283 194.726,173.599 194.643 C 174.569 194.389,174.653 195.134,173.838 196.771 C 171.447 201.569,173.618 201.723,178.787 197.122 C 180.192 195.871,181.445 194.848,181.573 194.848 C 181.700 194.848,182.501 193.451,183.353 191.742 C 188.138 182.146,195.804 174.870,197.597 178.222 M139.859 178.859 C 138.298 179.660,134.736 183.332,132.826 186.110 C 131.138 188.564,128.622 193.030,128.927 193.030 C 129.716 193.030,133.805 190.309,136.347 188.092 C 141.535 183.568,144.166 176.649,139.859 178.859 M256.439 178.852 C 253.892 180.057,248.847 186.226,246.393 191.136 C 245.287 193.348,245.333 193.376,247.727 191.933 C 252.069 189.318,256.195 185.293,257.619 182.285 C 259.120 179.111,258.669 177.797,256.439 178.852 M267.435 178.859 C 264.829 180.196,260.419 185.501,257.561 190.736 C 256.099 193.414,256.160 193.455,259.044 191.728 C 263.505 189.057,267.875 184.505,269.102 181.252 C 270.074 178.675,269.473 177.813,267.435 178.859 M194.394 179.039 C 191.373 180.924,183.129 192.018,184.059 192.948 C 184.639 193.528,192.450 187.485,194.370 184.969 C 197.629 180.701,197.644 177.012,194.394 179.039 M197.283 192.404 C 196.461 193.941,197.435 196.280,198.366 195.006 C 199.050 194.072,198.927 191.818,198.192 191.818 C 197.865 191.818,197.456 192.082,197.283 192.404 M138.304 195.878 C 137.191 196.991,137.163 197.576,138.223 197.576 C 138.959 197.576,140.707 195.909,140.530 195.377 C 140.278 194.619,139.355 194.827,138.304 195.878 M234.101 195.789 C 232.390 197.292,232.864 198.147,234.842 197.125 C 235.731 196.665,236.252 195.706,235.911 195.154 C 235.606 194.662,235.238 194.791,234.101 195.789 M114.548 195.634 C 112.409 196.562,110.425 199.342,111.286 200.204 C 111.656 200.574,111.962 200.451,113.509 199.310 C 117.627 196.273,118.263 194.023,114.548 195.634 M169.153 195.796 C 167.129 196.798,165.303 199.799,166.331 200.434 C 167.057 200.883,172.423 196.188,171.988 195.484 C 171.670 194.969,170.581 195.089,169.153 195.796 M204.574 196.126 C 201.828 198.934,203.587 202.582,206.515 200.151 C 207.407 199.411,207.413 199.388,206.818 198.951 C 205.455 197.949,205.383 197.811,205.534 196.471 C 205.712 194.895,205.760 194.912,204.574 196.126 M207.197 195.628 C 206.184 196.177,206.065 197.395,206.976 197.882 C 207.977 198.418,209.038 197.024,208.624 195.718 C 208.410 195.045,208.286 195.037,207.197 195.628 M265.788 196.077 C 263.023 198.842,264.802 202.580,267.727 200.151 C 268.619 199.411,268.625 199.388,268.030 198.951 C 266.667 197.949,266.596 197.811,266.747 196.471 C 266.924 194.900,266.953 194.912,265.788 196.077 M268.258 195.659 C 267.406 196.253,267.369 197.444,268.188 197.882 C 269.257 198.454,270.323 196.928,269.686 195.738 C 269.314 195.042,269.155 195.033,268.258 195.659 " stroke="none" fill="#3c4484" fill-rule="evenodd"></path><path id="path2" d="M129.924 56.591 C 168.466 56.633,231.534 56.633,270.076 56.591 C 308.617 56.549,277.083 56.514,200.000 56.514 C 122.917 56.514,91.383 56.549,129.924 56.591 M206.666 116.288 L 190.152 132.879 206.742 116.365 C 222.164 101.014,223.469 99.697,223.257 99.697 C 223.214 99.697,215.748 107.163,206.666 116.288 M226.515 102.727 C 228.176 104.394,229.602 105.758,229.686 105.758 C 229.769 105.758,228.479 104.394,226.818 102.727 C 225.158 101.061,223.731 99.697,223.648 99.697 C 223.564 99.697,224.855 101.061,226.515 102.727 M176.055 114.924 C 179.006 117.950,179.394 118.319,179.394 118.101 C 179.394 118.056,177.928 116.590,176.136 114.843 L 172.879 111.667 176.055 114.924 M230.600 128.566 L 231.644 129.707 229.082 132.353 L 226.520 135.000 229.241 132.350 L 231.962 129.700 230.760 128.562 L 229.557 127.424 230.600 128.566 M129.924 246.591 C 168.466 246.633,231.534 246.633,270.076 246.591 C 308.617 246.549,277.083 246.514,200.000 246.514 C 122.917 246.514,91.383 246.549,129.924 246.591 " stroke="none" fill="#6c647c" fill-rule="evenodd"></path><path id="path3" d="M230.143 144.015 L 228.030 146.212 230.227 144.099 C 231.436 142.937,232.424 141.948,232.424 141.902 C 232.424 141.680,232.106 141.975,230.143 144.015 M173.246 156.964 C 174.781 158.535,176.078 159.759,176.127 159.683 C 176.176 159.607,174.920 158.322,173.336 156.826 L 170.455 154.107 173.246 156.964 " stroke="none" fill="#9c846c" fill-rule="evenodd"></path><path id="path4" d="M132.348 61.439 C 169.557 61.482,230.443 61.482,267.652 61.439 C 304.860 61.397,274.417 61.362,200.000 61.362 C 125.583 61.362,95.140 61.397,132.348 61.439 M202.878 132.803 L 176.212 159.545 202.955 132.879 C 217.663 118.213,229.697 106.179,229.697 106.137 C 229.697 105.925,227.668 107.942,202.878 132.803 M238.028 123.258 L 244.388 129.697 238.332 135.833 L 232.275 141.970 238.485 135.833 L 244.695 129.697 238.182 123.258 L 231.668 116.818 238.028 123.258 M228.176 120.227 L 225.303 123.182 228.258 120.309 C 229.883 118.729,231.212 117.399,231.212 117.354 C 231.212 117.135,230.844 117.483,228.176 120.227 M173.181 123.940 L 167.429 129.698 170.910 133.107 L 174.390 136.515 171.063 133.105 L 167.735 129.695 173.486 123.938 C 176.649 120.772,179.168 118.182,179.085 118.182 C 179.002 118.182,176.345 120.773,173.181 123.940 M223.485 144.545 C 225.145 146.212,226.572 147.576,226.655 147.576 C 226.739 147.576,225.448 146.212,223.788 144.545 C 222.127 142.879,220.701 141.515,220.617 141.515 C 220.534 141.515,221.824 142.879,223.485 144.545 M136.501 181.288 L 135.303 182.576 136.591 181.378 C 137.789 180.264,138.018 180.000,137.789 180.000 C 137.739 180.000,137.160 180.580,136.501 181.288 M264.077 181.288 L 262.879 182.576 264.167 181.378 C 264.875 180.719,265.455 180.140,265.455 180.090 C 265.455 179.861,265.191 180.090,264.077 181.288 M137.879 186.818 C 137.487 187.235,137.276 187.576,137.409 187.576 C 137.541 187.576,137.469 187.814,137.247 188.106 C 137.026 188.398,137.345 188.172,137.956 187.603 C 138.567 187.035,138.996 186.456,138.910 186.316 C 138.691 185.962,138.677 185.968,137.879 186.818 M265.593 186.681 C 264.732 187.632,264.719 188.409,265.578 187.602 C 265.954 187.249,266.263 186.757,266.263 186.510 C 266.263 185.941,266.263 185.940,265.593 186.681 M180.729 195.530 C 180.156 196.206,180.157 196.208,180.758 195.721 C 181.091 195.451,181.568 195.155,181.818 195.063 C 182.204 194.922,182.200 194.893,181.789 194.872 C 181.524 194.859,181.046 195.155,180.729 195.530 M125.735 196.286 C 125.200 196.891,125.171 196.973,125.631 196.588 C 125.978 196.297,126.330 196.128,126.413 196.211 C 126.497 196.295,126.566 196.159,126.566 195.909 C 126.566 195.326,126.595 195.313,125.735 196.286 M231.999 195.710 C 231.894 195.880,231.956 196.110,232.136 196.222 C 232.602 196.509,232.903 196.115,232.514 195.726 C 232.296 195.508,232.127 195.503,231.999 195.710 M270.373 196.667 C 270.373 197.250,270.436 197.489,270.512 197.197 C 270.588 196.905,270.588 196.428,270.512 196.136 C 270.436 195.845,270.373 196.083,270.373 196.667 M115.758 197.424 C 115.022 198.174,114.487 198.788,114.571 198.788 C 114.654 198.788,115.325 198.174,116.061 197.424 C 116.797 196.674,117.331 196.061,117.247 196.061 C 117.164 196.061,116.494 196.674,115.758 197.424 M192.198 199.545 C 192.201 200.212,192.263 200.449,192.336 200.072 C 192.408 199.695,192.405 199.150,192.329 198.860 C 192.254 198.570,192.194 198.879,192.198 199.545 M132.348 241.742 C 169.557 241.785,230.443 241.785,267.652 241.742 C 304.860 241.700,274.417 241.665,200.000 241.665 C 125.583 241.665,95.140 241.700,132.348 241.742 " stroke="none" fill="#ac8c6a" fill-rule="evenodd"></path><path id="path5" d="M191.196 180.530 L 190.152 181.667 191.288 180.622 C 191.913 180.048,192.424 179.537,192.424 179.486 C 192.424 179.255,192.168 179.473,191.196 180.530 M253.168 181.288 L 251.970 182.576 253.258 181.378 C 253.966 180.719,254.545 180.140,254.545 180.090 C 254.545 179.861,254.282 180.090,253.168 181.288 M241.951 196.742 L 241.061 197.727 242.045 196.837 C 242.587 196.348,243.030 195.905,243.030 195.852 C 243.030 195.618,242.780 195.824,241.951 196.742 " stroke="none" fill="#857373" fill-rule="evenodd"></path><path id="path6" d="M163.937 120.530 L 156.212 128.333 164.015 120.608 C 168.307 116.360,171.818 112.848,171.818 112.805 C 171.818 112.591,171.116 113.279,163.937 120.530 M228.030 126.061 C 228.851 126.894,229.591 127.576,229.674 127.576 C 229.758 127.576,229.154 126.894,228.333 126.061 C 227.513 125.227,226.773 124.545,226.689 124.545 C 226.606 124.545,227.210 125.227,228.030 126.061 M179.847 143.106 L 169.545 153.485 179.924 143.183 C 185.633 137.518,190.303 132.847,190.303 132.805 C 190.303 132.591,189.421 133.460,179.847 143.106 M223.328 138.106 L 220.152 141.364 223.409 138.187 C 226.435 135.237,226.804 134.848,226.585 134.848 C 226.541 134.848,225.075 136.314,223.328 138.106 M252.860 180.379 L 251.970 181.364 252.955 180.474 C 253.496 179.984,253.939 179.541,253.939 179.489 C 253.939 179.255,253.689 179.461,252.860 180.379 M170.743 197.348 L 169.545 198.636 170.833 197.439 C 172.031 196.325,172.260 196.061,172.031 196.061 C 171.982 196.061,171.402 196.640,170.743 197.348 " stroke="none" fill="#635b7c" fill-rule="evenodd"></path><path id="path7" d="M155.444 128.951 L 154.721 129.720 161.293 136.291 C 166.628 141.626,167.937 142.790,168.250 142.474 C 168.563 142.159,168.550 142.118,168.182 142.258 C 167.875 142.374,165.663 140.364,161.377 136.074 L 155.026 129.718 155.748 128.950 C 156.145 128.527,156.401 128.182,156.318 128.182 C 156.234 128.182,155.841 128.528,155.444 128.951 " stroke="none" fill="#54547c" fill-rule="evenodd"></path><path id="path8" d="M171.206 139.318 L 168.333 142.273 171.288 139.400 C 172.913 137.820,174.242 136.490,174.242 136.445 C 174.242 136.226,173.874 136.574,171.206 139.318 M146.650 196.591 L 145.606 197.727 146.742 196.683 C 147.800 195.711,148.018 195.455,147.787 195.455 C 147.736 195.455,147.225 195.966,146.650 196.591 M180.435 196.742 L 179.545 197.727 180.530 196.837 C 181.072 196.348,181.515 195.905,181.515 195.852 C 181.515 195.618,181.265 195.824,180.435 196.742 M217.868 198.106 L 216.212 199.848 217.955 198.192 C 219.573 196.653,219.836 196.364,219.611 196.364 C 219.564 196.364,218.779 197.148,217.868 198.106 M218.173 199.015 L 216.212 201.061 218.258 199.100 C 219.383 198.021,220.303 197.101,220.303 197.054 C 220.303 196.831,219.994 197.115,218.173 199.015 " stroke="none" fill="#4c4c84" fill-rule="evenodd"></path></g></svg>